<?xml version="1.0" encoding="UTF-8" standalone="no"?>
<svg width="800" height="600" viewBox="0 0 800 600" xmlns="http://www.w3.org/2000/svg">
  <defs>
    <linearGradient id="goldGradient" x1="0%" y1="0%" x2="100%" y2="100%">
      <stop offset="0%" style="stop-color:#FFD700"/>
      <stop offset="100%" style="stop-color:#DAA520"/>
    </linearGradient>
  </defs>
  <g transform="translate(100, 50)">
    <!-- JAX text -->
    <path d="M50,0 L150,0 L200,200 L150,400 L50,400 L100,200 Z" fill="url(#goldGradient)" stroke="white" stroke-width="2"/>
    <path d="M220,0 L320,0 L370,200 L320,400 L220,400 L270,200 Z" fill="url(#goldGradient)" stroke="white" stroke-width="2"/>
    <path d="M390,0 L490,0 L540,200 L490,400 L390,400 L440,200 Z" fill="url(#goldGradient)" stroke="white" stroke-width="2"/>
    
    <!-- SAVER text -->
    <path d="M50,450 L150,450 L200,500 L150,550 L50,550 L100,500 Z" fill="url(#goldGradient)" stroke="white" stroke-width="2"/>
    <path d="M220,450 L320,450 L370,500 L320,550 L220,550 L270,500 Z" fill="url(#goldGradient)" stroke="white" stroke-width="2"/>
    <path d="M390,450 L490,450 L540,500 L490,550 L390,550 L440,500 Z" fill="url(#goldGradient)" stroke="white" stroke-width="2"/>
    <path d="M560,450 L660,450 L710,500 L660,550 L560,550 L610,500 Z" fill="url(#goldGradient)" stroke="white" stroke-width="2"/>
    <path d="M730,450 L830,450 L880,500 L830,550 L730,550 L780,500 Z" fill="url(#goldGradient)" stroke="white" stroke-width="2"/>
  </g>
</svg>
