<svg width="1842" height="1842" viewBox="0 0 1842 1842" fill="none" xmlns="http://www.w3.org/2000/svg">
<path d="M36.4336 996.3C115.234 974.6 232.434 966.2 289.434 963.2C308.034 962.2 323.634 977 323.734 995.6C324.734 1112.8 311.034 1232.7 426.634 1232.7C542.234 1232.7 499.734 954.5 496.034 934.2C495.934 933.4 495.734 932.6 495.734 931.8L424.434 257.2C422.534 239.1 435.934 222.9 454.134 221.3L796.634 192.4C814.934 190.8 831.034 204.8 831.934 223.2C837.934 342.8 857.934 747.7 860.634 890.8C863.634 1059.5 878.034 1598.1 429.634 1567.2C-62.0664 1533.3 -6.0664 1116.4 13.2336 1021.4C15.6336 1009.3 24.7336 999.7 36.6336 996.5H36.5336L36.4336 996.3Z" fill="black"/>
<path d="M1526.43 771.7C1516.73 769.1 1507.23 766.6 1498.13 764C1376.63 730.3 1298.23 695.5 1316.43 612.4C1330.13 549.9 1406.73 518.9 1521.23 559.4C1570.43 576.8 1626.63 607.3 1687.83 654.3L1841.43 425.3C1841.43 425.3 1735.03 304.2 1554.93 261.3L1564.13 179.4L1365.93 157L1355.23 251C1119.63 280.5 927.634 449 955.934 693.4C978.234 885.8 1156.03 960.6 1271.33 992.6C1315.13 1004.7 1349.83 1010.7 1363.73 1014.5C1386.23 1020.7 1429.23 1038.7 1463.83 1066.1C1506.63 1100 1536.43 1148.5 1497.83 1207.2C1483.43 1229 1464.63 1245.5 1442.33 1256.6C1390.83 1282.1 1320.63 1277.9 1243.53 1239.3C1191.43 1213.2 1136.33 1171.4 1081.73 1112.4L861.134 1358.2C931.334 1433.3 1039.43 1550.3 1205.23 1578.2L1195.63 1663L1393.83 1685.4L1406.03 1577.1C1566.83 1557.5 1703.63 1489.7 1789.93 1271.5C1897.13 1000.6 1663.73 807.9 1526.23 771.6L1526.43 771.7Z" fill="black"/>
</svg>
