<?xml version="1.0" encoding="UTF-8"?>
<svg id="Layer_1" xmlns="http://www.w3.org/2000/svg" version="1.1" viewBox="0 0 8192 2807.6">
  <!-- Generator: Adobe Illustrator 29.2.1, SVG Export Plug-In . SVG Version: 2.1.0 Build 116)  -->
  <defs>
    <style>
      .st0 {
        fill: #fff;
      }
    </style>
  </defs>
  <path class="st0" d="M1742,976.2h.2c-5.3-13.6-18.9-22.1-33.3-20.8l-315.1,27.3c-13.5,1.1-24.8,10.6-28.5,23.6l-287,1015.8c-5.5,19.5,8,39.3,28.2,41.3l230.8,22.7c16.6,1.6,31.9-9.7,35.1-26.2l35.5-181.4c2.9-14.3,14.8-25,29.3-26.2l280.9-23.5c14.7-1.2,28.4,7.6,33.4,21.5l64.9,181.4c5.6,15.7,22.3,24.7,38.6,20.6l239.7-60.2c19-4.8,29.5-25.1,22.5-43.4l-375.2-972.5ZM1657,1629.9l-152.2,13.6h0c-18,1.5-32.1-18.8-28.3-40.7l57.1-328.3c5.7-32.7,42.2-36.1,51.6-4.7l95.1,314.8c6.4,21-5.3,43.7-23.3,45.3Z"/>
  <path class="st0" d="M1081.5,1382.1c-2.7-143.1-22.7-548-28.7-667.6-.9-18.4-17-32.4-35.3-30.8l-342.5,28.9c-18.2,1.6-31.6,17.8-29.7,35.9l71.3,674.6c0,.8.3,1.6.3,2.4,3.7,20.3,46.2,298.5-69.4,298.5s-101.9-119.9-102.9-237.1c0-18.6-15.7-33.4-34.3-32.4-57,3-174.2,11.4-253,33.1h.1v.2h0c-11.9,3.2-21,12.8-23.4,24.9-19.3,95-75.3,511.9,416.4,545.8,448.4,30.9,434-507.7,431-676.4Z"/>
  <path class="st0" d="M2831.6,1364.8c-9-10.7-10.1-25.8-3-37.8l259.9-432.1c10.7-17.8,2.2-41-17.5-47.7l-251.9-85c-14.8-5-31,1.1-38.7,14.7l-155.5,271.5c-11.7,20.5-40.8,22.1-54.6,2.9l-173.6-239.4c-9.8-13.6-28.4-17.5-42.8-9l-251.3,147.1c-18,10.5-21.6,35-7.4,50.2h0,0c0,.1,339.9,367,339.9,367,9.8,10.6,11.5,26.4,4.1,38.8l-287.1,482.7c-10.9,18.3-1.6,42.1,19,48l251.5,72.4c14.7,4.2,30.4-2.4,37.7-15.9l165-305c11.3-20.8,40.4-23.1,54.7-4.1l233.4,309.1c9.9,13.2,28.1,16.8,42.4,8.5l242-140.9c17.5-10.2,21.6-33.6,8.6-49.1l-374.7-446.9Z"/>
  <path class="st0" d="M6230.3,1000.4l-232.8-18.3c-17.3-1.3-32.9,10.3-36.7,27.2l-125.3,565.6c-7.8,35.4-57.9,36.7-67.5,1.7l-156-567c-4.7-17-21.3-27.8-38.8-25.2l-219.6,33.5h0v-.2h-.1c-21,3.2-34.2,24.2-28.1,44.5l310.1,1024.3c4.4,14.8,18,24.8,33.3,24.8h281.5c15.8,0,29.7-10.6,33.7-25.8l277.2-1041.5c5.6-20.9-9.2-41.9-30.9-43.6Z"/>
  <path class="st0" d="M5199.8,1028.5h0c0-.1-.2-.1-.2-.1-4.5-14.8-18.3-24.9-33.8-24.6l-313.4,4.9c-14.5.2-27.3,9.4-32.2,23l-356.9,989.8c-7.4,20.4,5.5,42.5,26.9,46.1l224.3,38.2c17.7,3,34.8-7.9,39.5-25.2l47.4-175.1c4.1-15,17.6-25.5,33.2-25.7l278.8-3.5c15.7-.2,29.7,10.2,33.9,25.4l51,182.2c4.9,17.3,22,28,39.6,24.9l239.2-42.4c20.6-3.6,33.3-24.4,27.2-44.4l-304.5-993.5ZM5068.1,1673.6l-152.8,2.8h0c-18,.4-30.7-20.9-25.4-42.5l80.2-323.7c8-32.3,44.6-33.1,51.8-1.1l72.6,320.9c4.9,21.4-8.4,43.3-26.5,43.6Z"/>
  <polygon class="st0" points="6348.9 956.5 6340.8 2111.5 7033.6 2124.6 7033.6 1828.2 6612.7 1826.6 6612.7 1649.7 6971.4 1649.7 6971.4 1400.7 6607.8 1400.7 6607.8 1232 7040.2 1232 7040.2 951.8 6349 956.5 6348.9 956.5"/>
  <path class="st0" d="M7962.7,1949.8l-250.7-328c-13.6-17.9-7-43.5,13.4-52.9,93.9-43.1,202.3-126.7,202.3-313.7s-121.1-331.4-288.9-331.4h-455.8c-19.2,0-34.8,15.6-34.8,34.8v1102.8c0,19.2,15.6,34.8,34.8,34.8h206.5c19.2,0,34.8-15.6,34.8-34.8v-294.5c0-34.6,44.9-48,63.9-19.1l200.1,305.9c8.5,12.7,24.1,18.3,38.7,14.1l217.8-63.6h0v.2c23.5-6.9,32.7-35.2,17.9-54.6ZM7563.8,1384.5h-100c-19.2,0-34.8-15.6-34.8-34.8v-159.8c0-19.2,15.6-34.8,34.8-34.8h81.3c13.7-1.2,123.5-6.6,123.5,114.7h0c0,0,.1,0,.1,0,0,117.8-104.9,114.8-104.9,114.8Z"/>
  <path class="st0" d="M4482.9,1688c43.1-231.8-160.5-393.3-285.1-426.2-121.4-32.1-207.4-61.9-212.4-130-.5-8.7.3-18,2.4-28.1,13.7-62.5,90.3-93.5,204.8-53,49.2,17.4,105.4,47.9,166.6,94.9l153.6-229s-.2-.2-.4-.5l.4-.6s-106.4-121-286.4-163.9l9.1-80.9-198.2-22.4-10.6,93c-198.2,24.8-365.6,148.1-396.8,332.1-6,35-7.2,72.2-2.6,111.3,22.3,192.4,200.1,267.2,315.4,299.2,43.8,12.1,78.5,18.1,92.4,21.9,22.5,6.2,65.5,24.2,100.1,51.6,33.3,26.4,58.8,61.6,50.2,103.6-2.5,11.6-7.7,23.8-16,36.5-69.8,106.1-245.8,89.4-416.2-95l-220.6,245.8c.2.2.3.4.5.5l-.6.7c70.2,75.1,178.3,192.1,344.1,220l-9.6,84.8,198.2,22.4,12.2-108.3c160.8-19.6,297.6-87.4,383.9-305.6,10.1-25.6,17.2-50.6,21.6-74.8Z"/>
</svg>