<?xml version="1.0" encoding="UTF-8"?>
<svg id="Layer_1" xmlns="http://www.w3.org/2000/svg" version="1.1" viewBox="0 0 8192 2807.6">
  <!-- Generator: Adobe Illustrator 29.2.1, SVG Export Plug-In . SVG Version: 2.1.0 Build 116)  -->
  <path d="M257.3,1487.6c78.8-21.7,196-30.1,253-33.1,18.6-1,34.2,13.8,34.3,32.4,1,117.2-12.7,237.1,102.9,237.1s73.1-278.2,69.4-298.5c-.1-.8-.3-1.6-.3-2.4l-71.3-674.6c-1.9-18.1,11.5-34.3,29.7-35.9l342.5-28.9c18.3-1.6,34.4,12.4,35.3,30.8,6,119.6,26,524.5,28.7,667.6,3,168.7,17.4,707.3-431,676.4-491.7-33.9-435.7-450.8-416.4-545.8,2.4-12.1,11.5-21.7,23.4-24.9h-.1ZM2095.1,1000.3l339.9,366.9c9.8,10.6,11.5,26.4,4.1,38.8l-287.1,482.7c-10.9,18.3-1.6,42.1,19,48l251.5,72.4c14.7,4.2,30.4-2.4,37.7-15.9l165-305c11.3-20.8,40.4-23.1,54.7-4.1l233.4,309.1c9.9,13.2,28.1,16.8,42.4,8.5l242-140.9c17.5-10.2,21.6-33.6,8.6-49.1l-374.7-446.9c-9-10.7-10.1-25.8-3-37.8l259.9-432.1c10.7-17.8,2.2-41-17.5-47.7l-251.9-85c-14.8-5-31,1.1-38.7,14.7l-155.5,271.5c-11.7,20.5-40.8,22.1-54.6,2.9l-173.6-239.4c-9.8-13.6-28.4-17.5-42.8-9l-251.3,147.1c-18,10.5-21.6,35-7.4,50.2h-.2ZM1742,976.1l375.2,972.6c7,18.3-3.5,38.6-22.5,43.4l-239.7,60.2c-16.3,4.1-33-4.9-38.6-20.6l-64.9-181.4c-5-13.9-18.7-22.7-33.4-21.5l-280.9,23.5c-14.5,1.2-26.4,11.9-29.3,26.2l-35.5,181.4c-3.2,16.5-18.5,27.8-35.1,26.2l-230.8-22.7c-20.2-2-33.7-21.8-28.2-41.3l287-1015.8c3.7-13,15-22.5,28.5-23.6l315.1-27.3c14.4-1.3,28,7.2,33.3,20.8h0ZM1504.8,1643.5l152.2-13.6c18-1.6,29.7-24.3,23.3-45.3l-95.1-314.8c-9.4-31.4-45.9-28-51.6,4.7l-57.1,328.3c-3.8,21.9,10.3,42.2,28.3,40.6h0Z"/>
  <path d="M5353.6,1017.9l219.6-33.5c17.5-2.6,34.1,8.2,38.8,25.2l156,567c9.6,35,59.7,33.7,67.5-1.7l125.3-565.6c3.8-16.9,19.4-28.5,36.7-27.2l232.8,18.3c21.7,1.7,36.5,22.7,30.9,43.6l-277.2,1041.5c-4,15.2-17.9,25.8-33.7,25.8h-281.5c-15.3,0-28.9-10-33.3-24.8l-310.1-1024.3c-6.1-20.3,7.1-41.3,28.1-44.5h.1ZM6348.9,956.5l-8.1,1155,692.8,13.1v-296.4l-420.9-1.6v-176.9h358.7v-249h-363.6v-168.7h432.4v-280.2l-691.2,4.7ZM4359.2,1144.5l153.6-229s-162-184.3-424.5-178.7c-262.5,5.6-491.6,181.6-460.8,446.8,30.7,265.3,357.5,307.2,407.8,321.2,50.2,14,203.9,86.6,134.1,192.7s-245.8,89.4-416.2-95l-220.6,245.8c81,86.6,212.3,229,424.5,226.2,212.3-2.8,397.2-41.9,504.4-312.8s-126.2-463.6-263.7-499.9c-137.5-36.3-229.6-69.8-210.1-159.2,19.6-89.4,167.5-114.5,371.4,41.9h0ZM5199.8,1028.5l304.5,993.5c6.1,20-6.6,40.8-27.2,44.4l-239.2,42.4c-17.6,3.1-34.7-7.6-39.6-24.9l-51-182.2c-4.2-15.2-18.2-25.6-33.9-25.4l-278.8,3.5c-15.6.2-29.1,10.7-33.2,25.7l-47.4,175.1c-4.7,17.3-21.8,28.2-39.5,25.2l-224.3-38.2c-21.4-3.6-34.3-25.7-26.9-46.1l356.9-989.8c4.9-13.6,17.7-22.8,32.2-23l313.4-4.9c15.5-.3,29.3,9.8,33.8,24.6h.1ZM4915.3,1676.4l152.8-2.8c18.1-.3,31.4-22.2,26.5-43.6l-72.6-320.9c-7.2-32-43.8-31.2-51.8,1.1l-80.2,323.7c-5.3,21.6,7.4,42.9,25.4,42.6h0ZM7944.8,2004.2l-217.8,63.6c-14.6,4.2-30.2-1.4-38.7-14.1l-200.1-305.9c-19-28.9-63.9-15.5-63.9,19.1v294.5c0,19.2-15.6,34.8-34.8,34.8h-206.5c-19.2,0-34.8-15.6-34.8-34.8V958.6c0-19.2,15.6-34.8,34.8-34.8h455.8c167.8,0,288.9,144.4,288.9,331.4s-108.4,270.6-202.3,313.7c-20.4,9.4-27,35-13.4,52.9l250.7,328c14.8,19.4,5.6,47.7-17.9,54.6h0ZM7668.6,1269.8c0-121.3-109.8-115.9-123.5-114.7-1,0-2,.1-3,.1h-78.3c-19.2,0-34.8,15.6-34.8,34.8v159.8c0,19.2,15.6,34.8,34.8,34.8h100s104.9,3,104.9-114.8h0Z"/>
  <path d="M4197.8,1263c-9.7-2.6-19.2-5.1-28.3-7.7-121.5-33.7-199.9-68.5-181.7-151.6,13.7-62.5,90.3-93.5,204.8-53,49.2,17.4,105.4,47.9,166.6,94.9l153.6-229s-106.4-121.1-286.5-164l9.2-81.9-198.2-22.4-10.7,94c-235.6,29.5-427.6,198-399.3,442.4,22.3,192.4,200.1,267.2,315.4,299.2,43.8,12.1,78.5,18.1,92.4,21.9,22.5,6.2,65.5,24.2,100.1,51.6,42.8,33.9,72.6,82.4,34,141.1-14.4,21.8-33.2,38.3-55.5,49.4-51.5,25.5-121.7,21.3-198.8-17.3-52.1-26.1-107.2-67.9-161.8-126.9l-220.6,245.8c70.2,75.1,178.3,192.1,344.1,220l-9.6,84.8,198.2,22.4,12.2-108.3c160.8-19.6,297.6-87.4,383.9-305.6,107.2-270.9-126.2-463.6-263.7-499.9h0Z"/>
</svg>