<?xml version="1.0" encoding="UTF-8"?>
<svg id="Layer_1" xmlns="http://www.w3.org/2000/svg" xmlns:xlink="http://www.w3.org/1999/xlink" version="1.1" viewBox="0 0 3458 3458">
  <!-- Generator: Adobe Illustrator 29.6.1, SVG Export Plug-In . SVG Version: 2.1.1 Build 9)  -->
  <defs>
    <style>
      .st0 {
        fill: url(#linear-gradient1);
      }

      .st1 {
        fill: url(#linear-gradient);
      }
    </style>
    <linearGradient id="linear-gradient" x1="960.7" y1="78" x2="960.7" y2="-1952" gradientTransform="translate(0 2666)" gradientUnits="userSpaceOnUse">
      <stop offset="0" stop-color="#e5a31e"/>
      <stop offset="0" stop-color="#e5a421"/>
      <stop offset=".2" stop-color="#efcf7d"/>
      <stop offset=".5" stop-color="#f3dd99"/>
      <stop offset=".8" stop-color="#d5af73"/>
      <stop offset="1" stop-color="#81300b"/>
      <stop offset="1" stop-color="#782200"/>
    </linearGradient>
    <linearGradient id="linear-gradient1" x1="2408.5" y1="191.2" x2="2408.5" y2="-2065.1" gradientTransform="translate(0 2666)" gradientUnits="userSpaceOnUse">
      <stop offset="0" stop-color="#e5a31e"/>
      <stop offset="0" stop-color="#e5a421"/>
      <stop offset=".2" stop-color="#efcf7d"/>
      <stop offset=".5" stop-color="#f3dd99"/>
      <stop offset=".8" stop-color="#d5af73"/>
      <stop offset="1" stop-color="#81300b"/>
      <stop offset="1" stop-color="#782200"/>
    </linearGradient>
  </defs>
  <g>
    <path d="M378.5,1900.3c116.2-31.9,289.1-44.5,373.1-48.9,27.4-1.4,50.4,20.3,50.7,47.8,1.5,173-18.8,349.7,151.8,349.7s107.9-410.4,102.3-440.4c-.2-1.2-.4-2.4-.5-3.6l-105.2-995c-2.8-26.8,16.9-50.7,43.8-53l505.2-42.7c27.1-2.3,50.7,18.3,52.1,45.5,8.9,176.4,38.4,773.6,42.3,984.7,4.5,248.9,25.7,1043.3-635.7,997.7-725.3-50.1-642.6-665-614.2-805,3.6-17.8,17-31.9,34.5-36.7h-.2,0Z"/>
    <path d="M1503.8,714c25.3,0,46.6,19.9,48,45.7,8.9,176.4,38.4,773.6,42.3,984.7,4.4,242,24.4,999.6-582.1,999.6s-35.1-.6-53.6-1.9c-725.3-50.1-642.6-665-614.2-805,3.6-17.8,17-31.9,34.5-36.7h-.2c116.2-32,289.1-44.6,373.1-49h2.5c26.3,0,47.9,21.2,48.2,47.9,1.5,173-18.8,349.7,151.8,349.7s107.9-410.4,102.3-440.4c-.2-1.2-.4-2.4-.5-3.6l-105.2-995c-2.8-26.8,16.9-50.7,43.8-53l505.2-42.7c1.4,0,2.8-.2,4.1-.2M1503.8,644c-3.3,0-6.7,0-10.1.4l-505.2,42.7h0c-16.1,1.4-31.4,5.9-45.6,13.5-13.6,7.3-25.6,17-35.4,29-9.9,12-17.2,25.5-21.8,40.3-4.8,15.3-6.3,31.3-4.6,47.3h0l105.1,994.5c.3,3.6.8,6.5,1.1,8.3,0,.4.2.9.2,1.3,2.6,13.9,13.3,86.9,14.5,164.5.7,45.1-1.9,84.3-7.6,116.3-7.7,43.1-19,61.8-25.1,69.1-5.4,6.5-9.1,7.6-15.4,7.6-36.6,0-47.8-11.3-51.5-15-11.9-11.9-20.3-35.4-25.1-69.7-5.6-40.4-5.4-89.4-5.2-141.4,0-17.7.2-35.9,0-54.2v-.2c-.3-31.4-12.8-60.9-35.1-82.9s-51.8-34.2-83.1-34.2-4.1,0-6.1.2h0c-92.8,4.9-266.6,18-388,51.3-2.4.7-4.7,1.4-7,2.3-18.1,6.2-34.5,16.8-47.6,30.7-15.1,16-25.4,35.8-29.7,57.4-9.8,48.4-25.1,146.8-17.2,261,4.5,64.7,15.9,126.2,34,182.7,21.9,68.6,53.9,130.8,94.9,184.7,55.6,73.1,128.6,131.9,216.8,174.9,47.6,23.2,100.5,42.1,157.1,56.2,59,14.7,123.7,24.5,192.4,29.3,19.8,1.4,39.4,2.1,58.4,2.1,171.4,0,312.4-55.2,419.3-164.1,58.5-59.6,106.7-135.8,143.3-226.4,29.9-74.1,52.7-159.5,67.7-253.9,26.6-167.2,23.7-324.8,22-419v-7.4c-4.2-220.8-36.2-860.9-42.5-987h0c-3.2-62.8-55-112.1-117.9-112.1h0Z"/>
  </g>
  <g>
    <path d="M2667,1508.2c-14.3-3.8-28.2-7.5-41.8-11.3-179.4-49.7-295.1-101.1-268.3-223.7,20.2-92.3,133.3-138.1,302.5-78.2,72.6,25.7,155.5,70.7,245.9,140.1l226.8-338.1s-157.1-178.7-422.9-242.1l13.7-120.9-292.7-33.1-15.7,138.8c-347.8,43.6-631.2,292.4-589.4,653.1,32.9,283.9,295.4,394.5,465.6,441.8,64.6,17.9,116,26.7,136.4,32.4,33.2,9.2,96.7,35.7,147.7,76.2,63.2,50.1,107.2,121.6,50.2,208.3-21.2,32.2-49,56.6-82,72.9-76.1,37.7-179.8,31.5-293.5-25.6-76.9-38.6-158.3-100.2-238.9-187.5l-325.7,362.8c103.7,110.8,263.2,283.6,508.1,324.9l-14.2,125.1,292.7,33.1,18.1-159.8c237.4-28.9,439.3-129.1,566.8-451.1,158.3-400-186.3-684.5-389.2-738.1h-.2Z"/>
    <path d="M2430.2,600.9l292.7,33.1-13.7,120.9c265.8,63.4,422.9,242.1,422.9,242.1l-226.8,338.1c-90.4-69.4-173.3-114.4-245.9-140.1-52.5-18.6-99.6-27-140.2-27-90.2,0-148.4,41.5-162.3,105.2-26.8,122.6,88.9,174,268.3,223.7,13.6,3.8,27.5,7.5,41.8,11.3h.2c202.9,53.6,547.5,338.1,389.2,738.1-127.5,322-329.4,422.2-566.8,451.1l-18.1,159.8-292.7-33.1,14.2-125.1c-244.9-41.3-404.4-214.1-508.1-324.9l325.7-362.8c80.6,87.3,162,148.9,238.9,187.5,66.4,33.4,129.5,49.4,185.6,49.4s76.3-8.1,107.9-23.8c33-16.3,60.8-40.7,82-72.9,57-86.7,13-158.2-50.2-208.3-51-40.5-114.5-67-147.7-76.2-20.4-5.7-71.8-14.5-136.4-32.4-170.2-47.3-432.7-157.9-465.6-441.8-41.8-360.7,241.6-609.5,589.4-653.1l15.7-138.8M2430.1,530.9c-35.1,0-65.4,26.4-69.5,62.1l-9.7,85.7c-74.2,13.8-144.9,36.3-210.9,67.3-83.8,39.3-156.7,90.7-216.7,152.6-63.2,65.4-110,140.4-138.8,223-30.6,87.5-40.3,181.4-29,279.2,8.9,77.1,33.4,148.1,72.9,211.2,34.1,54.5,79.7,103.7,135.7,146.1,45.6,34.6,99,65.4,158.6,91.5,45.4,19.8,95.6,37.5,149.2,52.4h0c43,11.9,79.8,19.8,106.6,25.6,12.5,2.7,24.3,5.2,29.7,6.7h.1c26.4,7.3,81,30.3,122.9,63.6h0c24.8,19.7,41.2,39.7,47.3,57.9,4,11.9,6.2,29.1-12.1,57.1-14,21.3-32.4,37.7-54.5,48.6h0c-22.1,10.9-47.9,16.5-76.8,16.5-46.3,0-99.6-14.5-154.2-41.9-35.2-17.7-71.1-40.6-106.5-68.2-38-29.5-75.8-64.6-112.4-104.2-13.3-14.4-31.9-22.5-51.4-22.5h-.5c-19.7,0-38.4,8.6-51.6,23.2l-325.7,362.8c-24.3,27-23.8,68.1,1,94.6l3.3,3.5c54.3,58,121.9,130.2,209.9,195.4,48.8,36.1,99.4,66.4,150.1,89.8,38.8,17.9,78.7,32.4,119.2,43.2l-7.1,62.3c-2.1,18.5,3.2,37,14.8,51.5s28.4,23.9,46.9,25.9l292.7,33.1c2.7.3,5.3.4,8,.4,35.1,0,65.4-26.4,69.5-62.1l12-106.2c46.7-8.1,89.5-18.8,129.9-32.6,63.9-21.8,120.2-50.4,172.1-87.6,27.4-19.6,53.6-41.9,78-66.1,25-24.9,48.9-52.6,70.8-82.5,22.4-30.4,43.6-64,62.9-99.8,19.7-36.3,38.1-76.1,54.7-118.2,34.4-86.8,49.3-174,44.4-259.2-4.4-76.6-24.8-151.4-60.6-222.2-43.9-86.9-111.1-167.2-194.2-232.3-36.5-28.5-74.9-53.3-114.3-73.7-38.3-19.8-75.8-34.7-111.6-44.1-.8-.2-1.7-.4-2.5-.6-12.2-3.2-25.7-6.9-38.5-10.4h-.1c-69.5-19.2-146.3-43.1-189.4-74-14.2-10.2-23.6-20.4-28-30.4-1.5-3.5-6.2-14.3-1.2-36.9,3.1-14.1,10.6-24.9,22.9-33.1,16.7-11.1,41.2-17,71-17s73.8,7.7,116.8,23c71.1,25.2,147.4,68.8,226.6,129.6,12.3,9.4,27.3,14.5,42.6,14.5s7.6-.3,11.3-.9c19.1-3.1,36-14,46.8-30.1l226.8-338.1c17.7-26.4,15.4-61.4-5.6-85.2-1.8-2.1-45.3-51.2-123.2-107.7-45.3-32.9-93.4-61.9-143.1-86.4-43.2-21.3-87.7-39.1-132.9-53.3l7-61.5c2.1-18.5-3.2-37-14.8-51.5s-28.4-23.9-46.9-25.9l-292.7-33.1c-2.7-.3-5.3-.4-8-.4h0Z"/>
  </g>
  <path class="st1" d="M378.5,1900.3c116.2-31.9,289.1-44.5,373.1-48.9,27.4-1.4,50.4,20.3,50.7,47.8,1.5,173-18.8,349.7,151.8,349.7s107.9-410.4,102.3-440.4c-.2-1.2-.4-2.4-.5-3.6l-105.2-995c-2.8-26.8,16.9-50.7,43.8-53l505.2-42.7c27.1-2.3,50.7,18.3,52.1,45.5,8.9,176.4,38.4,773.6,42.3,984.7,4.5,248.9,25.7,1043.3-635.7,997.7-725.3-50.1-642.6-665-614.2-805,3.6-17.8,17-31.9,34.5-36.7h-.2,0Z"/>
  <path class="st0" d="M2667,1508.2c-14.3-3.8-28.2-7.5-41.8-11.3-179.4-49.7-295.1-101.1-268.3-223.7,20.2-92.3,133.3-138.1,302.5-78.2,72.6,25.7,155.5,70.7,245.9,140.1l226.8-338.1s-157.1-178.7-422.9-242.1l13.7-120.9-292.7-33.1-15.7,138.8c-347.8,43.6-631.2,292.4-589.4,653.1,32.9,283.9,295.4,394.5,465.6,441.8,64.6,17.9,116,26.7,136.4,32.4,33.2,9.2,96.7,35.7,147.7,76.2,63.2,50.1,107.2,121.6,50.2,208.3-21.2,32.2-49,56.6-82,72.9-76.1,37.7-179.8,31.5-293.5-25.6-76.9-38.6-158.3-100.2-238.9-187.5l-325.7,362.8c103.7,110.8,263.2,283.6,508.1,324.9l-14.2,125.1,292.7,33.1,18.1-159.8c237.4-28.9,439.3-129.1,566.8-451.1,158.3-400-186.3-684.5-389.2-738.1h-.2Z"/>
</svg>