<?xml version="1.0" encoding="UTF-8"?><svg id="Layer_1" xmlns="http://www.w3.org/2000/svg" xmlns:xlink="http://www.w3.org/1999/xlink" viewBox="0 0 3454.75 747.79"><defs><linearGradient id="linear-gradient" x1="1652.23" y1="-12.54" x2="1652.23" y2="816.56" gradientTransform="translate(96.36 918.89) rotate(-4) scale(1 -1)" gradientUnits="userSpaceOnUse"><stop offset="0" stop-color="#f59e0b"/><stop offset="1" stop-color="#fbbf24"/></linearGradient></defs><path d="M1335.26,585.19c5.8,6.9,4,17.3-3.8,21.9l-107.9,62.8c-6.4,3.7-14.5,2.1-18.9-3.8l-104.1-137.8c-6.4-8.5-19.4-7.4-24.4,1.8l-73.6,136c-3.3,6-10.3,9-16.8,7.1l-112.1-32.3c-9.2-2.6-13.3-13.2-8.5-21.4l128-215.2c3.3-5.5,2.5-12.6-1.8-17.3l-151.6-163.6h0c-6.3-6.8-4.7-17.7,3.3-22.4l112.1-65.6c6.4-3.8,14.7-2.1,19.1,4l77.4,106.8c6.2,8.6,19.1,7.8,24.3-1.3l69.3-121.1c3.4-6.1,10.7-8.8,17.3-6.6l112.3,37.9c8.8,3,12.6,13.3,7.8,21.3l-115.9,192.7c-3.2,5.4-2.7,12.1,1.3,16.9l167.1,199.3.1-.1ZM839.76,646.29c3.1,8.2-1.6,17.2-10,19.4l-106.9,26.8c-7.3,1.8-14.7-2.2-17.2-9.2l-28.9-80.9c-2.2-6.2-8.3-10.1-14.9-9.6l-125.3,10.5c-6.5.5-11.8,5.3-13.1,11.7l-15.8,80.9c-1.4,7.4-8.2,12.4-15.7,11.7l-102.9-10.1c-9-.9-15-9.7-12.6-18.4l128-453c1.6-5.8,6.7-10,12.7-10.5l140.5-12.2c6.4-.6,12.5,3.2,14.8,9.3h0l167.3,433.6h0ZM644.96,483.89l-42.4-140.4c-4.2-14-20.5-12.5-23,2.1l-25.5,146.4c-1.7,9.8,4.6,18.8,12.6,18.1h0l67.9-6c8-.7,13.2-10.8,10.4-20.2ZM383.26,393.59c-1.2-63.8-10.1-244.4-12.8-297.7-.4-8.2-7.6-14.4-15.7-13.7l-152.7,12.9c-8.1.7-14.1,7.9-13.2,16l31.8,300.8c0,.4,0,.7.1,1.1,1.6,9.1,20.6,133.1-30.9,133.1s-45.4-53.5-45.9-105.7c0-8.3-7-14.9-15.3-14.4-25.4,1.3-77.7,5.1-112.8,14.8h0c-5.3,1.4-9.4,5.7-10.4,11.1-8.6,42.4-33.6,228.3,185.7,243.4,199.9,13.8,193.5-226.4,192.2-301.6l-.1-.1ZM2732.06,203.79l-3.6,515,308.9,5.8v-132.2l-187.7-.7v-78.9h159.9v-111h-162.1v-75.2h192.8v-124.9l-308.2,2.1h0ZM2355.46,678.89c2.7,8.9-2.9,18.2-12.1,19.8l-106.7,18.9c-7.8,1.4-15.5-3.4-17.7-11.1l-22.7-81.2c-1.9-6.8-8.1-11.4-15.1-11.3l-124.3,1.6c-7,0-13,4.8-14.8,11.5l-21.1,78.1c-2.1,7.7-9.7,12.6-17.6,11.2l-100-17c-9.5-1.6-15.3-11.5-12-20.6l159.1-441.4c2.2-6.1,7.9-10.2,14.4-10.3l139.7-2.2c6.9-.1,13.1,4.4,15.1,11h0l135.8,443.1v-.1ZM2172.76,504.19l-32.4-143.1c-3.2-14.3-19.5-13.9-23.1.5l-35.8,144.3c-2.4,9.6,3.3,19.1,11.3,19h0l68.1-1.3c8.1-.1,14-9.9,11.8-19.4h.1ZM2679.16,223.39l-103.8-8.2c-7.7-.6-14.7,4.6-16.4,12.1l-55.9,252.2c-3.5,15.8-25.8,16.4-30.1.8l-69.6-252.8c-2.1-7.6-9.5-12.4-17.3-11.2l-97.9,14.9h0c-9.4,1.4-15.3,10.8-12.5,19.8l138.3,456.7c2,6.6,8,11.1,14.8,11.1h125.5c7,0,13.2-4.7,15-11.5l123.6-464.4c2.5-9.3-4.1-18.7-13.8-19.4l.1-.1ZM3443.66,671.09h0l-97.1,28.3c-6.5,1.9-13.5-.6-17.3-6.3l-89.2-136.4c-8.5-12.9-28.5-6.9-28.5,8.5v131.3c0,8.6-7,15.5-15.5,15.5h-92.1c-8.6,0-15.5-7-15.5-15.5V204.79c0-8.6,7-15.5,15.5-15.5h203.2c74.8,0,128.8,64.4,128.8,147.8s-48.3,120.7-90.2,139.9c-9.1,4.2-12,15.6-6,23.6l111.8,146.3c6.6,8.7,2.5,21.3-8,24.3l.1-.1ZM3320.56,343.49h0c0-54.1-49-51.7-55.1-51.1h-36.2c-8.6,0-15.5,7-15.5,15.5v71.3c0,8.6,7,15.5,15.5,15.5h44.6s46.8,1.3,46.8-51.2h-.1ZM1900.06,529.99c19.2-103.4-71.6-175.4-127.2-190.1-54.1-14.3-92.5-27.6-94.7-58-.2-3.9.1-8,1.1-12.5,6.1-27.9,40.3-41.7,91.3-23.6,21.9,7.8,47,21.4,74.3,42.3l68.5-102.1-.2-.2.2-.3s-47.4-54-127.7-73.1l4.1-36.1-88.4-10-4.7,41.5c-88.4,11.1-163,66.1-176.9,148.1-2.7,15.6-3.2,32.2-1.2,49.6,9.9,85.8,89.2,119.1,140.6,133.4,19.5,5.4,35,8.1,41.2,9.8,10,2.8,29.2,10.8,44.6,23,14.9,11.8,26.2,27.5,22.4,46.2-1.1,5.2-3.4,10.6-7.1,16.3-31.1,47.3-109.6,39.9-185.6-42.4l-98.4,109.6s.1.2.2.2l-.3.3c31.3,33.5,79.5,85.7,153.4,98.1l-4.3,37.8,88.4,10,5.4-48.3c71.7-8.7,132.7-39,171.2-136.3,4.5-11.4,7.7-22.6,9.7-33.3l.1.1Z" style="fill:url(#linear-gradient);"/><path d="M3003.95,130V0h42.5c14.11,0,24.72,2.92,31.83,8.75,7.11,5.83,10.67,14.46,10.67,25.89,0,6.07-1.73,11.44-5.18,16.12-3.45,4.67-8.16,8.29-14.11,10.85,7.02,1.96,12.57,5.7,16.65,11.21,4.08,5.51,6.12,12.07,6.12,19.69,0,11.67-3.78,20.83-11.34,27.5-7.56,6.67-18.25,10-32.05,10h-45.09ZM3021.1,55.45h25.89c7.5,0,13.5-1.88,17.99-5.64,4.49-3.76,6.74-8.86,6.74-15.3,0-7.16-2.08-12.36-6.25-15.61-4.17-3.25-10.51-4.88-19.02-4.88h-25.36v41.43ZM3021.1,69.2v46.79h28.3c7.98,0,14.27-2.07,18.89-6.21,4.61-4.14,6.92-9.84,6.92-17.1,0-15.65-8.51-23.48-25.54-23.48h-28.57Z" style="fill:#f59e0b;"/><path d="M3191.28,69.91h-56.34v46.07h65.45v14.02h-82.59V0h81.7v14.02h-64.55v41.88h56.34v14.02Z" style="fill:#f59e0b;"/><path d="M3313.33,14.02h-41.79v115.98h-17.05V14.02h-41.7V0h100.54v14.02Z" style="fill:#f59e0b;"/><path d="M3397.35,95.98h-54.46l-12.23,34.02h-17.68L3362.62,0h15l49.73,130h-17.59l-12.41-34.02ZM3348.06,81.96h44.2l-22.14-60.8-22.05,60.8Z" style="fill:#f59e0b;"/></svg>